ffmpeg version 2023-05-18-git-01d9a84ef5-essentials_build-www.gyan.dev Copyright (c) 2000-2023 the FFmpeg developers
  built with gcc 12.2.0 (Rev10, Built by MSYS2 project)
  configuration: --enable-gpl --enable-version3 --enable-static --disable-w32threads --disable-autodetect --enable-fontconfig --enable-iconv --enable-gnutls --enable-libxml2 --enable-gmp --enable-bzlib --enable-lzma --enable-zlib --enable-libsrt --enable-libssh --enable-libzmq --enable-avisynth --enable-sdl2 --enable-libwebp --enable-libx264 --enable-libx265 --enable-libxvid --enable-libaom --enable-libopenjpeg --enable-libvpx --enable-mediafoundation --enable-libass --enable-libfreetype --enable-libfribidi --enable-libvidstab --enable-libvmaf --enable-libzimg --enable-amf --enable-cuda-llvm --enable-cuvid --enable-ffnvcodec --enable-nvdec --enable-nvenc --enable-d3d11va --enable-dxva2 --enable-libvpl --enable-libgme --enable-libopenmpt --enable-libopencore-amrwb --enable-libmp3lame --enable-libtheora --enable-libvo-amrwbenc --enable-libgsm --enable-libopencore-amrnb --enable-libopus --enable-libspeex --enable-libvorbis --enable-librubberband
  libavutil      58.  7.100 / 58.  7.100
  libavcodec     60. 14.100 / 60. 14.100
  libavformat    60.  5.100 / 60.  5.100
  libavdevice    60.  2.100 / 60.  2.100
  libavfilter     9.  8.100 /  9.  8.100
  libswscale      7.  2.100 /  7.  2.100
  libswresample   4. 11.100 /  4. 11.100
  libpostproc    57.  2.100 / 57.  2.100
Splitting the commandline.
Reading option '-v' ... matched as option 'v' (set logging level) with argument 'debug'.
Reading option '-nostdin' ... matched as option 'stdin' (enable or disable interaction on standard input) with argument 0.
Reading option '-progress' ... matched as option 'progress' (write program-readable progress information) with argument 'C:/Users/INTEL/AppData/Local/Temp/KritaFFmpegProgress.zgejRc'.
Reading option '-r' ... matched as option 'r' (set frame rate (Hz value, fraction or abbreviation)) with argument '24'.
Reading option '-start_number' ... matched as AVOption 'start_number' with argument '0'.
Reading option '-i' ... matched as input url with argument 'D:/Trev/Python Projects/DumpsterDash/assets/frame%04d.png'.
Reading option '-vf' ... matched as option 'vf' (set video filters) with argument 'palettegen'.
Reading option '-y' ... matched as option 'y' (overwrite output files) with argument '1'.
Reading option 'D:/Trev/Python Projects/DumpsterDash/assets/palette.png' ... matched as output url.
Finished splitting the commandline.
Parsing a group of options: global .
Applying option v (set logging level) with argument debug.
Applying option nostdin (enable or disable interaction on standard input) with argument 0.
Applying option progress (write program-readable progress information) with argument C:/Users/INTEL/AppData/Local/Temp/KritaFFmpegProgress.zgejRc.
[file @ 000001f23dd71a40] Setting default whitelist 'file,crypto,data'
Applying option y (overwrite output files) with argument 1.
Successfully parsed a group of options.
Parsing a group of options: input url D:/Trev/Python Projects/DumpsterDash/assets/frame%04d.png.
Applying option r (set frame rate (Hz value, fraction or abbreviation)) with argument 24.
Successfully parsed a group of options.
Opening an input file: D:/Trev/Python Projects/DumpsterDash/assets/frame%04d.png.
[image2 @ 000001f23dd6f040] Opening 'D:/Trev/Python Projects/DumpsterDash/assets/frame0000.png' for reading
[file @ 000001f23ddb5a80] Setting default whitelist 'file,crypto,data'
[AVIOContext @ 000001f23ddbdbc0] Statistics: 20414 bytes read, 0 seeks
[image2 @ 000001f23dd6f040] Opening 'D:/Trev/Python Projects/DumpsterDash/assets/frame0001.png' for reading
[file @ 000001f23ddc2f40] Setting default whitelist 'file,crypto,data'
[AVIOContext @ 000001f23ddbdac0] Statistics: 20431 bytes read, 0 seeks
[image2 @ 000001f23dd6f040] Opening 'D:/Trev/Python Projects/DumpsterDash/assets/frame0002.png' for reading
[file @ 000001f23ddc2f40] Setting default whitelist 'file,crypto,data'
[AVIOContext @ 000001f23de01f80] Statistics: 20412 bytes read, 0 seeks
[image2 @ 000001f23dd6f040] Opening 'D:/Trev/Python Projects/DumpsterDash/assets/frame0003.png' for reading
[file @ 000001f23ddc3000] Setting default whitelist 'file,crypto,data'
[AVIOContext @ 000001f23de01f80] Statistics: 20431 bytes read, 0 seeks
[image2 @ 000001f23dd6f040] Opening 'D:/Trev/Python Projects/DumpsterDash/assets/frame0004.png' for reading
[file @ 000001f23ddf0100] Setting default whitelist 'file,crypto,data'
[AVIOContext @ 000001f23de01f80] Statistics: 5766 bytes read, 0 seeks
[image2 @ 000001f23dd6f040] Opening 'D:/Trev/Python Projects/DumpsterDash/assets/frame0005.png' for reading
[file @ 000001f23ddf2200] Setting default whitelist 'file,crypto,data'
[AVIOContext @ 000001f23de01f80] Statistics: 5766 bytes read, 0 seeks
[image2 @ 000001f23dd6f040] Opening 'D:/Trev/Python Projects/DumpsterDash/assets/frame0006.png' for reading
[file @ 000001f23ddf3a40] Setting default whitelist 'file,crypto,data'
[AVIOContext @ 000001f23de01f80] Statistics: 5766 bytes read, 0 seeks
[image2 @ 000001f23dd6f040] Opening 'D:/Trev/Python Projects/DumpsterDash/assets/frame0007.png' for reading
[file @ 000001f23ddf3b80] Setting default whitelist 'file,crypto,data'
[AVIOContext @ 000001f23de01f80] Statistics: 5766 bytes read, 0 seeks
[image2 @ 000001f23dd6f040] Opening 'D:/Trev/Python Projects/DumpsterDash/assets/frame0008.png' for reading
[file @ 000001f23ddf3d00] Setting default whitelist 'file,crypto,data'
[AVIOContext @ 000001f23de01f80] Statistics: 7063 bytes read, 0 seeks
[image2 @ 000001f23dd6f040] Opening 'D:/Trev/Python Projects/DumpsterDash/assets/frame0009.png' for reading
[file @ 000001f23ddf3d00] Setting default whitelist 'file,crypto,data'
[AVIOContext @ 000001f23de01f80] Statistics: 7063 bytes read, 0 seeks
[image2 @ 000001f23dd6f040] Opening 'D:/Trev/Python Projects/DumpsterDash/assets/frame0010.png' for reading
[file @ 000001f23ddf3d00] Setting default whitelist 'file,crypto,data'
[AVIOContext @ 000001f23de01f80] Statistics: 7063 bytes read, 0 seeks
[image2 @ 000001f23dd6f040] Opening 'D:/Trev/Python Projects/DumpsterDash/assets/frame0011.png' for reading
[file @ 000001f23ddf3d00] Setting default whitelist 'file,crypto,data'
[AVIOContext @ 000001f23de01f80] Statistics: 7063 bytes read, 0 seeks
[image2 @ 000001f23dd6f040] Opening 'D:/Trev/Python Projects/DumpsterDash/assets/frame0012.png' for reading
[file @ 000001f23ddf3d00] Setting default whitelist 'file,crypto,data'
[AVIOContext @ 000001f23de01f80] Statistics: 23409 bytes read, 0 seeks
[image2 @ 000001f23dd6f040] Opening 'D:/Trev/Python Projects/DumpsterDash/assets/frame0013.png' for reading
[file @ 000001f23ddf3d00] Setting default whitelist 'file,crypto,data'
[AVIOContext @ 000001f23de01f80] Statistics: 23409 bytes read, 0 seeks
[image2 @ 000001f23dd6f040] Opening 'D:/Trev/Python Projects/DumpsterDash/assets/frame0014.png' for reading
[file @ 000001f23ddf3d00] Setting default whitelist 'file,crypto,data'
[AVIOContext @ 000001f23de01f80] Statistics: 23409 bytes read, 0 seeks
[image2 @ 000001f23dd6f040] Opening 'D:/Trev/Python Projects/DumpsterDash/assets/frame0015.png' for reading
[file @ 000001f23ddf3d00] Setting default whitelist 'file,crypto,data'
[AVIOContext @ 000001f23de01f80] Statistics: 23409 bytes read, 0 seeks
[image2 @ 000001f23dd6f040] Opening 'D:/Trev/Python Projects/DumpsterDash/assets/frame0016.png' for reading
[file @ 000001f23ddf3d00] Setting default whitelist 'file,crypto,data'
[AVIOContext @ 000001f23de01f80] Statistics: 23409 bytes read, 0 seeks
Input #0, image2, from 'D:/Trev/Python Projects/DumpsterDash/assets/frame%04d.png':
  Duration: 00:00:00.68, start: 0.000000, bitrate: N/A
  Stream #0:0, 17, 1/25: Video: png, 1 reference frame, rgba(pc, gbr/unknown/unknown), 200x200 [SAR 23622:23622 DAR 1:1], 0/1, 25 fps, 25 tbr, 25 tbn
Successfully opened the file.
Parsing a group of options: output url D:/Trev/Python Projects/DumpsterDash/assets/palette.png.
Applying option vf (set video filters) with argument palettegen.
Successfully parsed a group of options.
Opening an output file: D:/Trev/Python Projects/DumpsterDash/assets/palette.png.
detected 12 logical cores
Successfully opened the file.
Stream mapping:
  Stream #0:0 -> #0:0 (png (native) -> png (native))
[vost#0:0/png @ 000001f23de35680] cur_dts is invalid [init:0 i_done:0 finish:0] (this is harmless if it occurs once at the start per stream)
    Last message repeated 12 times
[graph 0 input from stream 0:0 @ 000001f23e1c20c0] Setting 'video_size' to value '200x200'
[graph 0 input from stream 0:0 @ 000001f23e1c20c0] Setting 'pix_fmt' to value '26'
[graph 0 input from stream 0:0 @ 000001f23e1c20c0] Setting 'time_base' to value '1/24'
[graph 0 input from stream 0:0 @ 000001f23e1c20c0] Setting 'pixel_aspect' to value '23622/23622'
[graph 0 input from stream 0:0 @ 000001f23e1c20c0] Setting 'frame_rate' to value '24/1'
[graph 0 input from stream 0:0 @ 000001f23e1c20c0] w:200 h:200 pixfmt:rgba tb:1/24 fr:24/1 sar:23622/23622
[format @ 000001f23e1c3540] Setting 'pix_fmts' to value 'rgb24|rgba|rgb48be|rgba64be|pal8|gray|ya8|gray16be|ya16be|monob'
[auto_scale_0 @ 000001f23e1c3dc0] w:iw h:ih flags:'' interl:0
[Parsed_palettegen_0 @ 000001f23c526c00] auto-inserting filter 'auto_scale_0' between the filter 'graph 0 input from stream 0:0' and the filter 'Parsed_palettegen_0'
[auto_scale_1 @ 000001f23e09d340] w:iw h:ih flags:'' interl:0
[format @ 000001f23e1c3540] auto-inserting filter 'auto_scale_1' between the filter 'Parsed_palettegen_0' and the filter 'format'
[AVFilterGraph @ 000001f23ddebec0] query_formats: 4 queried, 1 merged, 2 already done, 0 delayed
[auto_scale_1 @ 000001f23e09d340] picking rgba out of 10 ref:bgra alpha:1
[swscaler @ 000001f23e1e1240] [swscaler @ 000001f23e1f2240] Forcing full internal H chroma due to input having non subsampled chroma
[swscaler @ 000001f23e1e1240] [swscaler @ 000001f23e205280] Forcing full internal H chroma due to input having non subsampled chroma
[swscaler @ 000001f23e1e1240] [swscaler @ 000001f23e218280] Forcing full internal H chroma due to input having non subsampled chroma
[swscaler @ 000001f23e1e1240] [swscaler @ 000001f23e22b2c0] Forcing full internal H chroma due to input having non subsampled chroma
[swscaler @ 000001f23e1e1240] [swscaler @ 000001f23e23e300] Forcing full internal H chroma due to input having non subsampled chroma
[swscaler @ 000001f23e1e1240] [swscaler @ 000001f23e259340] Forcing full internal H chroma due to input having non subsampled chroma
[swscaler @ 000001f23e1e1240] [swscaler @ 000001f23e26c380] Forcing full internal H chroma due to input having non subsampled chroma
[swscaler @ 000001f23e1e1240] [swscaler @ 000001f23e27f380] Forcing full internal H chroma due to input having non subsampled chroma
[swscaler @ 000001f23e1e1240] [swscaler @ 000001f23e2923c0] Forcing full internal H chroma due to input having non subsampled chroma
[swscaler @ 000001f23e1e1240] [swscaler @ 000001f23e2a5400] Forcing full internal H chroma due to input having non subsampled chroma
[swscaler @ 000001f23e1e1240] [swscaler @ 000001f23e2b8440] Forcing full internal H chroma due to input having non subsampled chroma
[swscaler @ 000001f23e1e1240] [swscaler @ 000001f23e2cb440] Forcing full internal H chroma due to input having non subsampled chroma
[swscaler @ 000001f23e1e1240] [swscaler @ 000001f23e2de480] Forcing full internal H chroma due to input having non subsampled chroma
[auto_scale_0 @ 000001f23e1c3dc0] w:200 h:200 fmt:rgba sar:23622/23622 -> w:200 h:200 fmt:bgra sar:1/1 flags:0x00000004
[swscaler @ 000001f23e2f14c0] [swscaler @ 000001f23e3024c0] Forcing full internal H chroma due to input having non subsampled chroma
[swscaler @ 000001f23e2f14c0] [swscaler @ 000001f23e315500] Forcing full internal H chroma due to input having non subsampled chroma
[swscaler @ 000001f23e2f14c0] [swscaler @ 000001f23e328500] Forcing full internal H chroma due to input having non subsampled chroma
[swscaler @ 000001f23e2f14c0] [swscaler @ 000001f23e33b540] Forcing full internal H chroma due to input having non subsampled chroma
[swscaler @ 000001f23e2f14c0] [swscaler @ 000001f23e34e580] Forcing full internal H chroma due to input having non subsampled chroma
[swscaler @ 000001f23e2f14c0] [swscaler @ 000001f23e3615c0] Forcing full internal H chroma due to input having non subsampled chroma
[swscaler @ 000001f23e2f14c0] [swscaler @ 000001f23e3745c0] Forcing full internal H chroma due to input having non subsampled chroma
[swscaler @ 000001f23e2f14c0] [swscaler @ 000001f23e387600] Forcing full internal H chroma due to input having non subsampled chroma
[swscaler @ 000001f23e2f14c0] [swscaler @ 000001f23e39a640] Forcing full internal H chroma due to input having non subsampled chroma
[swscaler @ 000001f23e2f14c0] [swscaler @ 000001f23e3ad780] Forcing full internal H chroma due to input having non subsampled chroma
[swscaler @ 000001f23e2f14c0] [swscaler @ 000001f23e3c0900] Forcing full internal H chroma due to input having non subsampled chroma
[swscaler @ 000001f23e2f14c0] [swscaler @ 000001f23e3d3a40] Forcing full internal H chroma due to input having non subsampled chroma
[swscaler @ 000001f23e2f14c0] [swscaler @ 000001f23e3e6bc0] Forcing full internal H chroma due to input having non subsampled chroma
[auto_scale_1 @ 000001f23e09d340] w:16 h:16 fmt:bgra sar:1/1 -> w:16 h:16 fmt:rgba sar:1/1 flags:0x00000004
[swscaler @ 000001f23e1e1240] [swscaler @ 000001f23e1f2240] Forcing full internal H chroma due to input having non subsampled chroma
[swscaler @ 000001f23e1e1240] [swscaler @ 000001f23e205280] Forcing full internal H chroma due to input having non subsampled chroma
[swscaler @ 000001f23e1e1240] [swscaler @ 000001f23e218280] Forcing full internal H chroma due to input having non subsampled chroma
[swscaler @ 000001f23e1e1240] [swscaler @ 000001f23e22b2c0] Forcing full internal H chroma due to input having non subsampled chroma
[swscaler @ 000001f23e1e1240] [swscaler @ 000001f23e23e300] Forcing full internal H chroma due to input having non subsampled chroma
[swscaler @ 000001f23e1e1240] [swscaler @ 000001f23e259740] Forcing full internal H chroma due to input having non subsampled chroma
[swscaler @ 000001f23e1e1240] [swscaler @ 000001f23e26c780] Forcing full internal H chroma due to input having non subsampled chroma
[swscaler @ 000001f23e1e1240] [swscaler @ 000001f23e27f780] Forcing full internal H chroma due to input having non subsampled chroma
[swscaler @ 000001f23e1e1240] [swscaler @ 000001f23e2927c0] Forcing full internal H chroma due to input having non subsampled chroma
[swscaler @ 000001f23e1e1240] [swscaler @ 000001f23e2a5800] Forcing full internal H chroma due to input having non subsampled chroma
[swscaler @ 000001f23e1e1240] [swscaler @ 000001f23e2b8840] Forcing full internal H chroma due to input having non subsampled chroma
[swscaler @ 000001f23e1e1240] [swscaler @ 000001f23e2cb840] Forcing full internal H chroma due to input having non subsampled chroma
[swscaler @ 000001f23e1e1240] [swscaler @ 000001f23e2de880] Forcing full internal H chroma due to input having non subsampled chroma
[auto_scale_0 @ 000001f23e1c3dc0] w:200 h:200 fmt:rgba sar:23622/23622 -> w:200 h:200 fmt:bgra sar:1/1 flags:0x00000004
[swscaler @ 000001f23e1e1240] [swscaler @ 000001f23e1f2240] Forcing full internal H chroma due to input having non subsampled chroma
[swscaler @ 000001f23e1e1240] [swscaler @ 000001f23e1ff200] Forcing full internal H chroma due to input having non subsampled chroma
[swscaler @ 000001f23e1e1240] [swscaler @ 000001f23e212240] Forcing full internal H chroma due to input having non subsampled chroma
[swscaler @ 000001f23e1e1240] [swscaler @ 000001f23e225280] Forcing full internal H chroma due to input having non subsampled chroma
[swscaler @ 000001f23e1e1240] [swscaler @ 000001f23e2382c0] Forcing full internal H chroma due to input having non subsampled chroma
[swscaler @ 000001f23e1e1240] [swscaler @ 000001f23e259740] Forcing full internal H chroma due to input having non subsampled chroma
[swscaler @ 000001f23e1e1240] [swscaler @ 000001f23e266700] Forcing full internal H chroma due to input having non subsampled chroma
[swscaler @ 000001f23e1e1240] [swscaler @ 000001f23e279740] Forcing full internal H chroma due to input having non subsampled chroma
[swscaler @ 000001f23e1e1240] [swscaler @ 000001f23e28c780] Forcing full internal H chroma due to input having non subsampled chroma
[swscaler @ 000001f23e1e1240] [swscaler @ 000001f23e29f7c0] Forcing full internal H chroma due to input having non subsampled chroma
[swscaler @ 000001f23e1e1240] [swscaler @ 000001f23e2b27c0] Forcing full internal H chroma due to input having non subsampled chroma
[swscaler @ 000001f23e1e1240] [swscaler @ 000001f23e2c5800] Forcing full internal H chroma due to input having non subsampled chroma
[swscaler @ 000001f23e1e1240] [swscaler @ 000001f23e2d8840] Forcing full internal H chroma due to input having non subsampled chroma
[auto_scale_0 @ 000001f23e1c3dc0] w:200 h:200 fmt:rgba sar:23622/23622 -> w:200 h:200 fmt:bgra sar:1/1 flags:0x00000004
[swscaler @ 000001f23e1e1240] [swscaler @ 000001f23e1f2240] Forcing full internal H chroma due to input having non subsampled chroma
[swscaler @ 000001f23e1e1240] [swscaler @ 000001f23e1ff200] Forcing full internal H chroma due to input having non subsampled chroma
[swscaler @ 000001f23e1e1240] [swscaler @ 000001f23e212240] Forcing full internal H chroma due to input having non subsampled chroma
[swscaler @ 000001f23e1e1240] [swscaler @ 000001f23e225280] Forcing full internal H chroma due to input having non subsampled chroma
[swscaler @ 000001f23e1e1240] [swscaler @ 000001f23e2382c0] Forcing full internal H chroma due to input having non subsampled chroma
[swscaler @ 000001f23e1e1240] [swscaler @ 000001f23e259740] Forcing full internal H chroma due to input having non subsampled chroma
[swscaler @ 000001f23e1e1240] [swscaler @ 000001f23e266700] Forcing full internal H chroma due to input having non subsampled chroma
[swscaler @ 000001f23e1e1240] [swscaler @ 000001f23e279740] Forcing full internal H chroma due to input having non subsampled chroma
[swscaler @ 000001f23e1e1240] [swscaler @ 000001f23e28c780] Forcing full internal H chroma due to input having non subsampled chroma
[swscaler @ 000001f23e1e1240] [swscaler @ 000001f23e29f7c0] Forcing full internal H chroma due to input having non subsampled chroma
[swscaler @ 000001f23e1e1240] [swscaler @ 000001f23e2b27c0] Forcing full internal H chroma due to input having non subsampled chroma
[swscaler @ 000001f23e1e1240] [swscaler @ 000001f23e2c5800] Forcing full internal H chroma due to input having non subsampled chroma
[swscaler @ 000001f23e1e1240] [swscaler @ 000001f23e2d8840] Forcing full internal H chroma due to input having non subsampled chroma
[auto_scale_0 @ 000001f23e1c3dc0] w:200 h:200 fmt:rgba sar:23622/23622 -> w:200 h:200 fmt:bgra sar:1/1 flags:0x00000004
[vost#0:0/png @ 000001f23de35680] cur_dts is invalid [init:0 i_done:0 finish:0] (this is harmless if it occurs once at the start per stream)
    Last message repeated 2 times
[in#0/image2 @ 000001f23dd6ee80] EOF while reading input
[in#0/image2 @ 000001f23dd6ee80] Terminating demuxer thread
[vost#0:0/png @ 000001f23de35680] cur_dts is invalid [init:0 i_done:0 finish:0] (this is harmless if it occurs once at the start per stream)
    Last message repeated 13 times
[Parsed_palettegen_0 @ 000001f23c526c00] 255(+1) colors generated out of 2926 colors; ratio=0.087150
[Parsed_palettegen_0 @ 000001f23c526c00] Duped color: FF040002
    Last message repeated 1 times
[Parsed_palettegen_0 @ 000001f23c526c00] Duped color: FF050103
[vost#0:0/png @ 000001f23de35680] cur_dts is invalid [init:0 i_done:0 finish:0] (this is harmless if it occurs once at the start per stream)
Output #0, image2, to 'D:/Trev/Python Projects/DumpsterDash/assets/palette.png':
  Metadata:
    encoder         : Lavf60.5.100
  Stream #0:0, 0, 1/24: Video: png, 1 reference frame, rgba(pc, gbr/unknown/unknown, progressive), 16x16 (0x0) [SAR 1:1 DAR 1:1], 0/1, q=2-31, 200 kb/s, 24 fps, 24 tbn
    Metadata:
      encoder         : Lavc60.14.100 png
[vost#0:0/png @ 000001f23de35680] Clipping frame in rate conversion by 0.000008
frame=    0 fps=0.0 q=0.0 size=       0kB time=-577014:32:22.77 bitrate=  -0.0kbits/s speed=N/A    [out_0_0 @ 000001f23e1c3380] EOF on sink link out_0_0:default.
No more output streams to write to, finishing.
[image2 @ 000001f23de34b40] The specified filename 'D:/Trev/Python Projects/DumpsterDash/assets/palette.png' does not contain an image sequence pattern or a pattern is invalid.
[image2 @ 000001f23de34b40] Use a pattern such as %03d for an image sequence or use the -update option (with -frames:v 1 if needed) to write a single image.
[image2 @ 000001f23de34b40] Opening 'D:/Trev/Python Projects/DumpsterDash/assets/palette.png' for writing
[file @ 000001f23ddec0c0] Setting default whitelist 'file,crypto,data'
[AVIOContext @ 000001f23ddea800] Statistics: 1009 bytes written, 0 seeks, 1 writeouts
[out#0/image2 @ 000001f23dd6ed80] All streams finished
[out#0/image2 @ 000001f23dd6ed80] Terminating muxer thread
[out#0/image2 @ 000001f23dd6ed80] Output file #0 (D:/Trev/Python Projects/DumpsterDash/assets/palette.png):
[out#0/image2 @ 000001f23dd6ed80]   Output stream #0:0 (video): 1 frames encoded; 1 packets muxed (1009 bytes); 
[out#0/image2 @ 000001f23dd6ed80]   Total: 1 packets (1009 bytes) muxed
[out#0/image2 @ 000001f23dd6ed80] video:1kB audio:0kB subtitle:0kB other streams:0kB global headers:0kB muxing overhead: unknown
frame=    1 fps=0.0 q=-0.0 Lsize=N/A time=00:00:00.00 bitrate=N/A speed=   0x    
[AVIOContext @ 000001f23dd6ebc0] Statistics: 387 bytes written, 0 seeks, 2 writeouts
17 frames successfully decoded, 0 decoding errors
[in#0/image2 @ 000001f23dd6ee80] Input file #0 (D:/Trev/Python Projects/DumpsterDash/assets/frame%04d.png):
[in#0/image2 @ 000001f23dd6ee80]   Input stream #0:0 (video): 17 packets read (250049 bytes); 17 frames decoded; 
[in#0/image2 @ 000001f23dd6ee80]   Total: 17 packets (250049 bytes) demuxed
